<mxfile host="drawio-plugin" modified="2024-03-26T11:27:39.169Z" agent="5.0 (Windows NT 10.0; Win64; x64) AppleWebKit/537.36 (KHTML, like Gecko) Chrome/111.0.0.0 Safari/537.36" etag="2JzyMijixRZTjLoRivC1" version="20.5.3" type="embed"><diagram id="23iRSUPoRavnBvh4doch" name="Page-1"><mxGraphModel dx="507" dy="389" grid="1" gridSize="10" guides="1" tooltips="1" connect="1" arrows="1" fold="1" page="0" pageScale="1" pageWidth="827" pageHeight="1169" math="0" shadow="0"><root><mxCell id="0"/><mxCell id="1" parent="0"/><mxCell id="2" value="&lt;font style=&quot;font-size: 18px;&quot;&gt;Iterable&lt;/font&gt;" style="rounded=1;whiteSpace=wrap;html=1;fillColor=#6a00ff;fontColor=#ffffff;strokeColor=#3700CC;" vertex="1" parent="1"><mxGeometry x="460" y="80" width="160" height="40" as="geometry"/></mxCell><mxCell id="3" value="&lt;font style=&quot;font-size: 18px;&quot;&gt;Collection&lt;/font&gt;" style="rounded=1;whiteSpace=wrap;html=1;fillColor=#6a00ff;fontColor=#ffffff;strokeColor=#3700CC;" vertex="1" parent="1"><mxGeometry x="460" y="200" width="160" height="40" as="geometry"/></mxCell><mxCell id="4" value="&lt;font style=&quot;font-size: 18px;&quot;&gt;Interface&lt;/font&gt;" style="rounded=1;whiteSpace=wrap;html=1;fillColor=#6a00ff;fontColor=#ffffff;strokeColor=#3700CC;" vertex="1" parent="1"><mxGeometry x="80" y="1160" width="160" height="40" as="geometry"/></mxCell><mxCell id="5" value="" style="endArrow=block;endSize=16;endFill=0;html=1;rounded=0;fontSize=18;exitX=0.5;exitY=0;exitDx=0;exitDy=0;entryX=0.5;entryY=1;entryDx=0;entryDy=0;" edge="1" parent="1" source="3" target="2"><mxGeometry width="160" relative="1" as="geometry"><mxPoint x="120" y="190" as="sourcePoint"/><mxPoint x="230" y="370" as="targetPoint"/></mxGeometry></mxCell><mxCell id="6" value="&lt;font style=&quot;font-size: 18px;&quot;&gt;List&lt;/font&gt;" style="rounded=1;whiteSpace=wrap;html=1;fillColor=#6a00ff;fontColor=#ffffff;strokeColor=#3700CC;" vertex="1" parent="1"><mxGeometry x="140" y="320" width="160" height="40" as="geometry"/></mxCell><mxCell id="7" value="&lt;span style=&quot;font-size: 18px;&quot;&gt;Queue&lt;/span&gt;" style="rounded=1;whiteSpace=wrap;html=1;fillColor=#6a00ff;fontColor=#ffffff;strokeColor=#3700CC;" vertex="1" parent="1"><mxGeometry x="460" y="320" width="160" height="40" as="geometry"/></mxCell><mxCell id="8" value="&lt;font style=&quot;font-size: 18px;&quot;&gt;Set&lt;/font&gt;" style="rounded=1;whiteSpace=wrap;html=1;fillColor=#6a00ff;fontColor=#ffffff;strokeColor=#3700CC;" vertex="1" parent="1"><mxGeometry x="801" y="320" width="160" height="40" as="geometry"/></mxCell><mxCell id="9" value="&lt;font style=&quot;font-size: 18px;&quot;&gt;Class&lt;/font&gt;" style="rounded=1;whiteSpace=wrap;html=1;fillColor=#008a00;fontColor=#ffffff;strokeColor=#005700;" vertex="1" parent="1"><mxGeometry x="320" y="1160" width="160" height="40" as="geometry"/></mxCell><mxCell id="11" value="&lt;font style=&quot;font-size: 18px;&quot;&gt;Legacy Class&lt;/font&gt;" style="rounded=1;whiteSpace=wrap;html=1;fillColor=#a0522d;fontColor=#ffffff;strokeColor=#6D1F00;" vertex="1" parent="1"><mxGeometry x="560" y="1160" width="160" height="40" as="geometry"/></mxCell><mxCell id="13" value="&lt;font style=&quot;font-size: 18px;&quot;&gt;ArrayList&lt;/font&gt;" style="rounded=1;whiteSpace=wrap;html=1;fillColor=#008a00;fontColor=#ffffff;strokeColor=#005700;" vertex="1" parent="1"><mxGeometry x="160" y="440" width="160" height="40" as="geometry"/></mxCell><mxCell id="14" value="&lt;font style=&quot;font-size: 18px;&quot;&gt;LinkedList&lt;/font&gt;" style="rounded=1;whiteSpace=wrap;html=1;fillColor=#008a00;fontColor=#ffffff;strokeColor=#005700;" vertex="1" parent="1"><mxGeometry x="160" y="560" width="160" height="40" as="geometry"/></mxCell><mxCell id="15" value="&lt;font style=&quot;font-size: 18px;&quot;&gt;Vector&lt;/font&gt;" style="rounded=1;whiteSpace=wrap;html=1;fillColor=#a0522d;fontColor=#ffffff;strokeColor=#6D1F00;" vertex="1" parent="1"><mxGeometry x="160" y="680" width="160" height="40" as="geometry"/></mxCell><mxCell id="16" value="&lt;font style=&quot;font-size: 18px;&quot;&gt;Stack&lt;/font&gt;" style="rounded=1;whiteSpace=wrap;html=1;fillColor=#a0522d;fontColor=#ffffff;strokeColor=#6D1F00;" vertex="1" parent="1"><mxGeometry x="160" y="800" width="160" height="40" as="geometry"/></mxCell><mxCell id="17" value="" style="endArrow=block;dashed=1;endFill=0;endSize=12;html=1;rounded=0;fontSize=18;entryX=0;entryY=0.5;entryDx=0;entryDy=0;edgeStyle=orthogonalEdgeStyle;" edge="1" parent="1" target="6"><mxGeometry width="160" relative="1" as="geometry"><mxPoint x="80" y="700" as="sourcePoint"/><mxPoint x="530" y="680" as="targetPoint"/><Array as="points"><mxPoint x="80" y="540"/><mxPoint x="80" y="340"/></Array></mxGeometry></mxCell><mxCell id="18" value="&lt;span style=&quot;font-size: 18px;&quot;&gt;Deque&lt;br&gt;&lt;/span&gt;" style="rounded=1;whiteSpace=wrap;html=1;fillColor=#6a00ff;fontColor=#ffffff;strokeColor=#3700CC;" vertex="1" parent="1"><mxGeometry x="460" y="560" width="160" height="40" as="geometry"/></mxCell><mxCell id="19" value="&lt;font style=&quot;font-size: 18px;&quot;&gt;ArrayDeque&lt;/font&gt;" style="rounded=1;whiteSpace=wrap;html=1;fillColor=#008a00;fontColor=#ffffff;strokeColor=#005700;" vertex="1" parent="1"><mxGeometry x="560" y="680" width="160" height="40" as="geometry"/></mxCell><mxCell id="20" value="&lt;font style=&quot;font-size: 18px;&quot;&gt;PriorityQueue&lt;/font&gt;" style="rounded=1;whiteSpace=wrap;html=1;fillColor=#008a00;fontColor=#ffffff;strokeColor=#005700;" vertex="1" parent="1"><mxGeometry x="560" y="440" width="160" height="40" as="geometry"/></mxCell><mxCell id="21" value="" style="endArrow=block;endSize=16;endFill=0;html=1;rounded=0;fontSize=18;exitX=0.5;exitY=0;exitDx=0;exitDy=0;entryX=0.5;entryY=1;entryDx=0;entryDy=0;" edge="1" parent="1" source="16" target="15"><mxGeometry width="160" relative="1" as="geometry"><mxPoint x="340" y="620" as="sourcePoint"/><mxPoint x="500" y="620" as="targetPoint"/></mxGeometry></mxCell><mxCell id="23" value="" style="endArrow=block;dashed=1;endFill=0;endSize=12;html=1;rounded=0;fontSize=18;exitX=0;exitY=0.5;exitDx=0;exitDy=0;" edge="1" parent="1" source="13"><mxGeometry width="160" relative="1" as="geometry"><mxPoint x="120" y="490" as="sourcePoint"/><mxPoint x="80" y="460" as="targetPoint"/></mxGeometry></mxCell><mxCell id="24" value="" style="endArrow=block;dashed=1;endFill=0;endSize=12;html=1;rounded=0;fontSize=18;exitX=0;exitY=0.5;exitDx=0;exitDy=0;" edge="1" parent="1" source="14"><mxGeometry width="160" relative="1" as="geometry"><mxPoint x="120" y="490" as="sourcePoint"/><mxPoint x="80" y="580" as="targetPoint"/></mxGeometry></mxCell><mxCell id="25" value="" style="endArrow=block;dashed=1;endFill=0;endSize=12;html=1;rounded=0;fontSize=18;exitX=0;exitY=0.5;exitDx=0;exitDy=0;" edge="1" parent="1" source="15"><mxGeometry width="160" relative="1" as="geometry"><mxPoint x="240" y="640" as="sourcePoint"/><mxPoint x="80" y="700" as="targetPoint"/></mxGeometry></mxCell><mxCell id="26" value="" style="endArrow=block;endSize=16;endFill=0;html=1;rounded=0;fontSize=18;exitX=0.25;exitY=0;exitDx=0;exitDy=0;entryX=0.25;entryY=1;entryDx=0;entryDy=0;" edge="1" parent="1" source="18" target="7"><mxGeometry width="160" relative="1" as="geometry"><mxPoint x="460" y="430" as="sourcePoint"/><mxPoint x="620" y="430" as="targetPoint"/></mxGeometry></mxCell><mxCell id="27" value="" style="endArrow=block;dashed=1;endFill=0;endSize=12;html=1;rounded=0;fontSize=18;exitX=0.5;exitY=0;exitDx=0;exitDy=0;entryX=0.75;entryY=1;entryDx=0;entryDy=0;edgeStyle=orthogonalEdgeStyle;" edge="1" parent="1" source="20" target="7"><mxGeometry width="160" relative="1" as="geometry"><mxPoint x="460" y="430" as="sourcePoint"/><mxPoint x="620" y="430" as="targetPoint"/></mxGeometry></mxCell><mxCell id="28" value="" style="endArrow=block;dashed=1;endFill=0;endSize=12;html=1;rounded=0;fontSize=18;exitX=1;exitY=0.5;exitDx=0;exitDy=0;entryX=0;entryY=0.5;entryDx=0;entryDy=0;" edge="1" parent="1" source="14" target="18"><mxGeometry width="160" relative="1" as="geometry"><mxPoint x="470" y="590" as="sourcePoint"/><mxPoint x="630" y="590" as="targetPoint"/></mxGeometry></mxCell><mxCell id="31" value="" style="endArrow=block;endSize=16;endFill=0;html=1;rounded=0;fontSize=18;exitX=0.5;exitY=0;exitDx=0;exitDy=0;entryX=0.25;entryY=1;entryDx=0;entryDy=0;edgeStyle=orthogonalEdgeStyle;" edge="1" parent="1" source="6" target="3"><mxGeometry width="160" relative="1" as="geometry"><mxPoint x="440" y="330" as="sourcePoint"/><mxPoint x="600" y="330" as="targetPoint"/></mxGeometry></mxCell><mxCell id="32" value="" style="endArrow=block;endSize=16;endFill=0;html=1;rounded=0;fontSize=18;exitX=0.5;exitY=0;exitDx=0;exitDy=0;entryX=0.5;entryY=1;entryDx=0;entryDy=0;" edge="1" parent="1" source="7" target="3"><mxGeometry width="160" relative="1" as="geometry"><mxPoint x="440" y="330" as="sourcePoint"/><mxPoint x="600" y="330" as="targetPoint"/></mxGeometry></mxCell><mxCell id="33" value="" style="endArrow=block;endSize=16;endFill=0;html=1;rounded=0;fontSize=18;entryX=0.75;entryY=1;entryDx=0;entryDy=0;exitX=0.5;exitY=0;exitDx=0;exitDy=0;edgeStyle=orthogonalEdgeStyle;" edge="1" parent="1" source="8" target="3"><mxGeometry width="160" relative="1" as="geometry"><mxPoint x="700" y="290" as="sourcePoint"/><mxPoint x="860" y="290" as="targetPoint"/></mxGeometry></mxCell><mxCell id="34" value="&lt;font style=&quot;font-size: 18px;&quot;&gt;SortedSet&lt;/font&gt;" style="rounded=1;whiteSpace=wrap;html=1;fillColor=#6a00ff;fontColor=#ffffff;strokeColor=#3700CC;" vertex="1" parent="1"><mxGeometry x="800" y="560" width="160" height="40" as="geometry"/></mxCell><mxCell id="35" value="&lt;font style=&quot;font-size: 18px;&quot;&gt;NavigableSet&lt;/font&gt;" style="rounded=1;whiteSpace=wrap;html=1;fillColor=#6a00ff;fontColor=#ffffff;strokeColor=#3700CC;" vertex="1" parent="1"><mxGeometry x="800" y="680" width="160" height="40" as="geometry"/></mxCell><mxCell id="36" value="&lt;font style=&quot;font-size: 18px;&quot;&gt;HachSet&lt;/font&gt;" style="rounded=1;whiteSpace=wrap;html=1;fillColor=#008a00;fontColor=#ffffff;strokeColor=#005700;" vertex="1" parent="1"><mxGeometry x="921" y="400" width="160" height="40" as="geometry"/></mxCell><mxCell id="37" value="&lt;span style=&quot;font-size: 18px;&quot;&gt;LinkedHashSet&lt;/span&gt;" style="rounded=1;whiteSpace=wrap;html=1;fillColor=#008a00;fontColor=#ffffff;strokeColor=#005700;" vertex="1" parent="1"><mxGeometry x="921" y="480" width="160" height="40" as="geometry"/></mxCell><mxCell id="38" value="" style="endArrow=block;dashed=1;endFill=0;endSize=12;html=1;rounded=0;fontSize=18;entryX=0.5;entryY=1;entryDx=0;entryDy=0;" edge="1" parent="1" target="8"><mxGeometry width="160" relative="1" as="geometry"><mxPoint x="881" y="500" as="sourcePoint"/><mxPoint x="900" y="530" as="targetPoint"/></mxGeometry></mxCell><mxCell id="39" value="" style="endArrow=block;dashed=1;endFill=0;endSize=12;html=1;rounded=0;fontSize=18;exitX=0;exitY=0.5;exitDx=0;exitDy=0;" edge="1" parent="1" source="37"><mxGeometry width="160" relative="1" as="geometry"><mxPoint x="770" y="490" as="sourcePoint"/><mxPoint x="880" y="500" as="targetPoint"/></mxGeometry></mxCell><mxCell id="40" value="" style="endArrow=block;dashed=1;endFill=0;endSize=12;html=1;rounded=0;fontSize=18;exitX=0;exitY=0.5;exitDx=0;exitDy=0;" edge="1" parent="1" source="36"><mxGeometry width="160" relative="1" as="geometry"><mxPoint x="770" y="490" as="sourcePoint"/><mxPoint x="880" y="420" as="targetPoint"/></mxGeometry></mxCell><mxCell id="41" value="" style="endArrow=block;endSize=16;endFill=0;html=1;rounded=0;fontSize=18;exitX=0.25;exitY=0;exitDx=0;exitDy=0;entryX=0.25;entryY=1;entryDx=0;entryDy=0;" edge="1" parent="1" source="34" target="8"><mxGeometry width="160" relative="1" as="geometry"><mxPoint x="770" y="490" as="sourcePoint"/><mxPoint x="930" y="490" as="targetPoint"/></mxGeometry></mxCell><mxCell id="42" value="" style="endArrow=block;endSize=16;endFill=0;html=1;rounded=0;fontSize=18;exitX=0.5;exitY=0;exitDx=0;exitDy=0;entryX=0.5;entryY=1;entryDx=0;entryDy=0;" edge="1" parent="1" source="35" target="34"><mxGeometry width="160" relative="1" as="geometry"><mxPoint x="860" y="710" as="sourcePoint"/><mxPoint x="1020" y="710" as="targetPoint"/></mxGeometry></mxCell><mxCell id="43" value="&lt;span style=&quot;font-size: 18px;&quot;&gt;LinkedHashSet&lt;/span&gt;" style="rounded=1;whiteSpace=wrap;html=1;fillColor=#008a00;fontColor=#ffffff;strokeColor=#005700;" vertex="1" parent="1"><mxGeometry x="801" y="800" width="160" height="40" as="geometry"/></mxCell><mxCell id="44" value="" style="endArrow=block;dashed=1;endFill=0;endSize=12;html=1;rounded=0;fontSize=18;exitX=0.5;exitY=0;exitDx=0;exitDy=0;entryX=0.5;entryY=1;entryDx=0;entryDy=0;" edge="1" parent="1" source="43" target="35"><mxGeometry width="160" relative="1" as="geometry"><mxPoint x="860" y="710" as="sourcePoint"/><mxPoint x="1020" y="710" as="targetPoint"/></mxGeometry></mxCell><mxCell id="45" value="&lt;font style=&quot;font-size: 18px;&quot;&gt;Map&lt;/font&gt;" style="rounded=1;whiteSpace=wrap;html=1;fillColor=#6a00ff;fontColor=#ffffff;strokeColor=#3700CC;" vertex="1" parent="1"><mxGeometry x="1200" y="320" width="160" height="40" as="geometry"/></mxCell><mxCell id="46" value="&lt;font style=&quot;font-size: 18px;&quot;&gt;HachSet&lt;/font&gt;" style="rounded=1;whiteSpace=wrap;html=1;fillColor=#008a00;fontColor=#ffffff;strokeColor=#005700;" vertex="1" parent="1"><mxGeometry x="1320" y="400" width="160" height="40" as="geometry"/></mxCell><mxCell id="47" value="&lt;span style=&quot;font-size: 18px;&quot;&gt;LinkedHashSet&lt;/span&gt;" style="rounded=1;whiteSpace=wrap;html=1;fillColor=#008a00;fontColor=#ffffff;strokeColor=#005700;" vertex="1" parent="1"><mxGeometry x="1320" y="480" width="160" height="40" as="geometry"/></mxCell><mxCell id="48" value="&lt;font style=&quot;font-size: 18px;&quot;&gt;HaschTable&lt;/font&gt;" style="rounded=1;whiteSpace=wrap;html=1;fillColor=#a0522d;fontColor=#ffffff;strokeColor=#6D1F00;" vertex="1" parent="1"><mxGeometry x="1320" y="560" width="160" height="40" as="geometry"/></mxCell><mxCell id="49" value="" style="endArrow=block;dashed=1;endFill=0;endSize=12;html=1;rounded=0;fontSize=18;entryX=0.5;entryY=1;entryDx=0;entryDy=0;" edge="1" parent="1" target="45"><mxGeometry width="160" relative="1" as="geometry"><mxPoint x="1279" y="580" as="sourcePoint"/><mxPoint x="1229" y="490" as="targetPoint"/></mxGeometry></mxCell><mxCell id="50" value="" style="endArrow=block;dashed=1;endFill=0;endSize=12;html=1;rounded=0;fontSize=18;exitX=0;exitY=0.5;exitDx=0;exitDy=0;" edge="1" parent="1" source="46"><mxGeometry width="160" relative="1" as="geometry"><mxPoint x="1219" y="510" as="sourcePoint"/><mxPoint x="1279" y="420" as="targetPoint"/></mxGeometry></mxCell><mxCell id="51" value="" style="endArrow=block;dashed=1;endFill=0;endSize=12;html=1;rounded=0;fontSize=18;exitX=0;exitY=0.5;exitDx=0;exitDy=0;" edge="1" parent="1" source="47"><mxGeometry width="160" relative="1" as="geometry"><mxPoint x="1209" y="520" as="sourcePoint"/><mxPoint x="1279" y="500" as="targetPoint"/></mxGeometry></mxCell><mxCell id="52" value="" style="endArrow=block;dashed=1;endFill=0;endSize=12;html=1;rounded=0;fontSize=18;exitX=0;exitY=0.5;exitDx=0;exitDy=0;" edge="1" parent="1" source="48"><mxGeometry width="160" relative="1" as="geometry"><mxPoint x="1129" y="520" as="sourcePoint"/><mxPoint x="1279" y="580" as="targetPoint"/></mxGeometry></mxCell><mxCell id="53" value="&lt;font style=&quot;font-size: 18px;&quot;&gt;SortedMap&lt;/font&gt;" style="rounded=1;whiteSpace=wrap;html=1;fillColor=#6a00ff;fontColor=#ffffff;strokeColor=#3700CC;" vertex="1" parent="1"><mxGeometry x="1200" y="640" width="160" height="40" as="geometry"/></mxCell><mxCell id="54" value="" style="endArrow=block;endSize=16;endFill=0;html=1;rounded=0;fontSize=18;exitX=0.25;exitY=0;exitDx=0;exitDy=0;entryX=0.25;entryY=1;entryDx=0;entryDy=0;" edge="1" parent="1" source="53" target="45"><mxGeometry width="160" relative="1" as="geometry"><mxPoint x="979" y="590" as="sourcePoint"/><mxPoint x="1139" y="590" as="targetPoint"/></mxGeometry></mxCell><mxCell id="55" value="&lt;font style=&quot;font-size: 18px;&quot;&gt;NavigableMap&lt;/font&gt;" style="rounded=1;whiteSpace=wrap;html=1;fillColor=#6a00ff;fontColor=#ffffff;strokeColor=#3700CC;" vertex="1" parent="1"><mxGeometry x="1200" y="760" width="160" height="40" as="geometry"/></mxCell><mxCell id="56" value="" style="endArrow=block;endSize=16;endFill=0;html=1;rounded=0;fontSize=18;exitX=0.5;exitY=0;exitDx=0;exitDy=0;entryX=0.5;entryY=1;entryDx=0;entryDy=0;" edge="1" parent="1" source="55" target="53"><mxGeometry width="160" relative="1" as="geometry"><mxPoint x="1179" y="700" as="sourcePoint"/><mxPoint x="1339" y="700" as="targetPoint"/></mxGeometry></mxCell><mxCell id="57" value="&lt;span style=&quot;font-size: 18px;&quot;&gt;LinkedHashSet&lt;/span&gt;" style="rounded=1;whiteSpace=wrap;html=1;fillColor=#008a00;fontColor=#ffffff;strokeColor=#005700;" vertex="1" parent="1"><mxGeometry x="1200" y="880" width="160" height="40" as="geometry"/></mxCell><mxCell id="60" value="" style="endArrow=block;dashed=1;endFill=0;endSize=12;html=1;rounded=0;fontSize=18;exitX=0.5;exitY=0;exitDx=0;exitDy=0;entryX=0.5;entryY=1;entryDx=0;entryDy=0;" edge="1" parent="1" source="57" target="55"><mxGeometry width="160" relative="1" as="geometry"><mxPoint x="1099" y="790" as="sourcePoint"/><mxPoint x="1259" y="790" as="targetPoint"/></mxGeometry></mxCell><mxCell id="61" value="" style="endArrow=block;dashed=1;endFill=0;endSize=12;html=1;rounded=0;fontSize=18;exitX=0.5;exitY=0;exitDx=0;exitDy=0;entryX=0.75;entryY=1;entryDx=0;entryDy=0;edgeStyle=orthogonalEdgeStyle;" edge="1" parent="1" source="19" target="18"><mxGeometry width="160" relative="1" as="geometry"><mxPoint x="650" y="450" as="sourcePoint"/><mxPoint x="590" y="370" as="targetPoint"/></mxGeometry></mxCell><mxCell id="62" value="" style="endArrow=block;endSize=16;endFill=0;html=1;rounded=0;fontSize=18;" edge="1" parent="1"><mxGeometry y="19" width="160" relative="1" as="geometry"><mxPoint x="800" y="1179.09" as="sourcePoint"/><mxPoint x="960" y="1179.09" as="targetPoint"/><mxPoint as="offset"/></mxGeometry></mxCell><mxCell id="63" value="" style="endArrow=block;dashed=1;endFill=0;endSize=12;html=1;rounded=0;fontSize=18;" edge="1" parent="1"><mxGeometry width="160" relative="1" as="geometry"><mxPoint x="1040" y="1179.6100000000001" as="sourcePoint"/><mxPoint x="1200" y="1179.6100000000001" as="targetPoint"/></mxGeometry></mxCell><mxCell id="64" value="Implements" style="text;html=1;align=center;verticalAlign=middle;resizable=0;points=[];autosize=1;strokeColor=none;fillColor=none;fontSize=18;" vertex="1" parent="1"><mxGeometry x="1060" y="1145" width="120" height="40" as="geometry"/></mxCell><mxCell id="69" value="Extends" style="text;html=1;strokeColor=none;fillColor=none;align=center;verticalAlign=middle;whiteSpace=wrap;rounded=0;labelBackgroundColor=default;fontSize=18;" vertex="1" parent="1"><mxGeometry x="840" y="1150" width="60" height="30" as="geometry"/></mxCell></root></mxGraphModel></diagram></mxfile>